<svg xmlns="http://www.w3.org/2000/svg" width="819.2283325195312" height="188.8738250732422" viewBox="-543.7223510742188 -94.51900482177734 819.2283325195312 188.8738250732422"><title>Neo4j Graph Visualization</title><desc>Created using Neo4j (http://www.neo4j.com/)</desc><g class="layer relationships"><g class="relationship" transform="translate(246.50594849721625 -4.540718530298037) rotate(180.80699237713463)"><path class="outline" fill="#A5ABB6" stroke="none" d="M 25 0.5 L 60.28756388395489 0.5 L 60.28756388395489 -0.5 L 25 -0.5 Z M 112.96725138395489 0.5 L 148.25481526790978 0.5 L 148.25481526790978 3.5 L 155.25481526790978 0 L 148.25481526790978 -3.5 L 148.25481526790978 -0.5 L 112.96725138395489 -0.5 Z"/><text text-anchor="middle" pointer-events="none" font-size="8px" fill="#000000" x="86.62740763395489" y="3" transform="rotate(180 86.62740763395489 0)" font-family="sans-serif">TESTED_BY</text></g><g class="relationship" transform="translate(-122.8787773342691 -4.815380096737655) rotate(359.31420658314175)"><path class="outline" fill="#A5ABB6" stroke="none" d="M 25 0.5 L 66.29551352185891 0.5 L 66.29551352185891 -0.5 L 25 -0.5 Z M 115.86582602185891 0.5 L 157.16133954371782 0.5 L 157.16133954371782 3.5 L 164.16133954371782 0 L 157.16133954371782 -3.5 L 157.16133954371782 -0.5 L 115.86582602185891 -0.5 Z"/><text text-anchor="middle" pointer-events="none" font-size="8px" fill="#000000" x="91.08066977185891" y="3" font-family="sans-serif">BASED_ON</text></g><g class="relationship" transform="translate(-335.54776842912474 -63.552956001154) rotate(452.28005481294076)"><path class="outline" fill="#A5ABB6" stroke="none" d="M 25 0.5 L 47.336983528380685 0.5 L 47.336983528380685 -0.5 L 25 -0.5 Z M 74.67292102838069 0.5 L 97.00990455676137 0.5 L 97.00990455676137 3.5 L 104.00990455676137 0 L 97.00990455676137 -3.5 L 97.00990455676137 -0.5 L 74.67292102838069 -0.5 Z"/><text text-anchor="middle" pointer-events="none" font-size="8px" fill="#000000" x="61.004952278380685" y="3" transform="rotate(180 61.004952278380685 0)" font-family="sans-serif">NEXT</text></g><g class="relationship" transform="translate(-335.54776842912474 -63.552956001154) rotate(180.63418193089893)"><path class="outline" fill="#A5ABB6" stroke="none" d="M 25 0.5 L 66.38845083011344 0.5 L 66.38845083011344 -0.5 L 25 -0.5 Z M 104.24001333011344 0.5 L 145.62846416022688 0.5 L 145.62846416022688 3.5 L 152.62846416022688 0 L 145.62846416022688 -3.5 L 145.62846416022688 -0.5 L 104.24001333011344 -0.5 Z"/><text text-anchor="middle" pointer-events="none" font-size="8px" fill="#000000" x="85.31423208011344" y="3" transform="rotate(180 85.31423208011344 0)" font-family="sans-serif">TARGET</text></g><g class="relationship" transform="translate(-335.54776842912474 -63.552956001154) rotate(375.4397521666281)"><path class="outline" fill="#A5ABB6" stroke="none" d="M 25 0.5 L 87.8098269488756 0.5 L 87.8098269488756 -0.5 L 25 -0.5 Z M 125.8215456988756 0.5 L 188.6313726477512 0.5 L 188.6313726477512 3.5 L 195.6313726477512 0 L 188.6313726477512 -3.5 L 188.6313726477512 -0.5 L 125.8215456988756 -0.5 Z"/><text text-anchor="middle" pointer-events="none" font-size="8px" fill="#000000" x="106.8156863238756" y="3" font-family="sans-serif">REC_BY</text></g><g class="relationship" transform="translate(-340.6802934873713 65.35481203580778) rotate(342.14235980353055)"><path class="outline" fill="#A5ABB6" stroke="none" d="M 25 0.5 L 91.90716031955701 0.5 L 91.90716031955701 -0.5 L 25 -0.5 Z M 129.91887906955702 0.5 L 196.82603938911402 0.5 L 196.82603938911402 3.5 L 203.82603938911402 0 L 196.82603938911402 -3.5 L 196.82603938911402 -0.5 L 129.91887906955702 -0.5 Z"/><text text-anchor="middle" pointer-events="none" font-size="8px" fill="#000000" x="110.91301969455701" y="3" font-family="sans-serif">REC_BY</text></g><g class="relationship" transform="translate(-340.6802934873713 65.35481203580778) rotate(180.07297966231096)"><path class="outline" fill="#A5ABB6" stroke="none" d="M 25 0.5 L 64.59530469186748 0.5 L 64.59530469186748 -0.5 L 25 -0.5 Z M 102.44686719186748 0.5 L 142.04217188373497 0.5 L 142.04217188373497 3.5 L 149.04217188373497 0 L 142.04217188373497 -3.5 L 142.04217188373497 -0.5 L 102.44686719186748 -0.5 Z"/><text text-anchor="middle" pointer-events="none" font-size="8px" fill="#000000" x="83.52108594186748" y="3" transform="rotate(180 83.52108594186748 0)" font-family="sans-serif">TARGET</text></g></g><g class="layer nodes"><g class="node" aria-label="graph-node0" transform="translate(246.50594849721625,-4.540718530298037)"><circle class="outline" cx="0" cy="0" r="25" fill="#C990C0" stroke="#b261a5" stroke-width="2px"/><text class="caption" text-anchor="middle" pointer-events="none" x="0" y="5" font-size="10px" fill="#FFFFFF" font-family="sans-serif"> Client</text></g><g class="node" aria-label="graph-node1" transform="translate(66.26901223241492,-7.079464903258959)"><circle class="outline" cx="0" cy="0" r="25" fill="#F79767" stroke="#f36924" stroke-width="2px"/><text class="caption" text-anchor="middle" pointer-events="none" x="0" y="5" font-size="10px" fill="#FFFFFF" font-family="sans-serif"> contextL…</text></g><g class="node" aria-label="graph-node2" transform="translate(-122.8787773342691,-4.815380096737655)"><circle class="outline" cx="0" cy="0" r="25" fill="#57C7E3" stroke="#23b3d7" stroke-width="2px"/><text class="caption" text-anchor="middle" pointer-events="none" x="0" y="5" font-size="10px" fill="#2A2C34" font-family="sans-serif"> contextL…</text></g><g class="node" aria-label="graph-node3" transform="translate(-335.54776842912474,-63.552956001154)"><circle class="outline" cx="0" cy="0" r="25" fill="#F16667" stroke="#eb2728" stroke-width="2px"/><text class="caption" text-anchor="middle" pointer-events="none" x="0" y="5" font-size="10px" fill="#FFFFFF" font-family="sans-serif"> </text></g><g class="node" aria-label="graph-node4" transform="translate(-513.1653517951974,-65.51900765796552)"><circle class="outline" cx="0" cy="0" r="25" fill="#ECB5C9" stroke="#da7298" stroke-width="2px"/><text class="caption" text-anchor="middle" pointer-events="none" x="0" y="5" font-size="10px" fill="#2A2C34" font-family="sans-serif"> rest:req:…</text></g><g class="node" aria-label="graph-node5" transform="translate(-340.6802934873713,65.35481203580778)"><circle class="outline" cx="0" cy="0" r="25" fill="#F16667" stroke="#eb2728" stroke-width="2px"/><text class="caption" text-anchor="middle" pointer-events="none" x="0" y="5" font-size="10px" fill="#FFFFFF" font-family="sans-serif"> {"type":"…</text></g><g class="node" aria-label="graph-node6" transform="translate(-514.7223241879541,65.13312842131855)"><circle class="outline" cx="0" cy="0" r="25" fill="#569480" stroke="#447666" stroke-width="2px"/><text class="caption" text-anchor="middle" pointer-events="none" x="0" y="5" font-size="10px" fill="#FFFFFF" font-family="sans-serif"> rest:resp…</text></g></g></svg>