<svg xmlns="http://www.w3.org/2000/svg" width="687.9755859375" height="205.5415496826172" viewBox="-475.5762634277344 -111.00260925292969 687.9755859375 205.5415496826172"><title>Neo4j Graph Visualization</title><desc>Created using Neo4j (http://www.neo4j.com/)</desc><g class="layer relationships"><g class="relationship" transform="translate(183.3993142466839 -11.261948418999562) rotate(180.1380172329592)"><path class="outline" fill="#A5ABB6" stroke="none" d="M 25 0.5 L 42.08692097335852 0.5 L 42.08692097335852 -0.5 L 25 -0.5 Z M 94.76660847335852 0.5 L 111.85352944671703 0.5 L 111.85352944671703 3.5 L 118.85352944671703 0 L 111.85352944671703 -3.5 L 111.85352944671703 -0.5 L 94.76660847335852 -0.5 Z"/><text text-anchor="middle" pointer-events="none" font-size="8px" fill="#000000" x="68.42676472335852" y="3" transform="rotate(180 68.42676472335852 0)" font-family="sans-serif">TESTED_BY</text></g><g class="relationship" transform="translate(-110.42927117978489 -14.333855805892473) rotate(361.04107620133817)"><path class="outline" fill="#A5ABB6" stroke="none" d="M 25 0.5 L 46.71496096549839 0.5 L 46.71496096549839 -0.5 L 25 -0.5 Z M 96.28527346549839 0.5 L 118.00023443099678 0.5 L 118.00023443099678 3.5 L 125.00023443099678 0 L 118.00023443099678 -3.5 L 118.00023443099678 -0.5 L 96.28527346549839 -0.5 Z"/><text text-anchor="middle" pointer-events="none" font-size="8px" fill="#000000" x="71.50011721549839" y="3" font-family="sans-serif">BASED_ON</text></g><g class="relationship" transform="translate(-262.34575058740927 -80.53984704208845) rotate(449.00310297659547)"><path class="outline" fill="#A5ABB6" stroke="none" d="M 25 0.5 L 55.88247699620109 0.5 L 55.88247699620109 -0.5 L 25 -0.5 Z M 83.21841449620109 0.5 L 114.10089149240218 0.5 L 114.10089149240218 3.5 L 121.10089149240218 0 L 114.10089149240218 -3.5 L 114.10089149240218 -0.5 L 83.21841449620109 -0.5 Z"/><text text-anchor="middle" pointer-events="none" font-size="8px" fill="#000000" x="69.55044574620109" y="3" font-family="sans-serif">NEXT</text></g><g class="relationship" transform="translate(-262.34575058740927 -80.53984704208845) rotate(180.45491115477557)"><path class="outline" fill="#A5ABB6" stroke="none" d="M 25 0.5 L 69.69237406629333 0.5 L 69.69237406629333 -0.5 L 25 -0.5 Z M 107.54393656629333 0.5 L 152.23631063258665 0.5 L 152.23631063258665 3.5 L 159.23631063258665 0 L 152.23631063258665 -3.5 L 152.23631063258665 -0.5 L 107.54393656629333 -0.5 Z"/><text text-anchor="middle" pointer-events="none" font-size="8px" fill="#000000" x="88.61815531629333" y="3" transform="rotate(180 88.61815531629333 0)" font-family="sans-serif">TARGET</text></g><g class="relationship" transform="translate(-262.34575058740927 -80.53984704208845) rotate(383.5478224554726)"><path class="outline" fill="#A5ABB6" stroke="none" d="M 25 0.5 L 60.352227121090436 0.5 L 60.352227121090436 -0.5 L 25 -0.5 Z M 98.36394587109044 0.5 L 133.71617299218087 0.5 L 133.71617299218087 3.5 L 140.71617299218087 0 L 133.71617299218087 -3.5 L 133.71617299218087 -0.5 L 98.36394587109044 -0.5 Z"/><text text-anchor="middle" pointer-events="none" font-size="8px" fill="#000000" x="79.35808649609044" y="3" font-family="sans-serif">REC_BY</text></g><g class="relationship" transform="translate(-259.80384965596585 65.53893045323909) rotate(331.8659281824713)"><path class="outline" fill="#A5ABB6" stroke="none" d="M 25 0.5 L 62.18833564410042 0.5 L 62.18833564410042 -0.5 L 25 -0.5 Z M 100.20005439410042 0.5 L 137.38839003820084 0.5 L 137.38839003820084 3.5 L 144.38839003820084 0 L 137.38839003820084 -3.5 L 137.38839003820084 -0.5 L 100.20005439410042 -0.5 Z"/><text text-anchor="middle" pointer-events="none" font-size="8px" fill="#000000" x="81.19419501910042" y="3" font-family="sans-serif">REC_BY</text></g><g class="relationship" transform="translate(-259.80384965596585 65.53893045323909) rotate(180.09723864789498)"><path class="outline" fill="#A5ABB6" stroke="none" d="M 25 0.5 L 70.2167448789686 0.5 L 70.2167448789686 -0.5 L 25 -0.5 Z M 108.0683073789686 0.5 L 153.2850522579372 0.5 L 153.2850522579372 3.5 L 160.2850522579372 0 L 153.2850522579372 -3.5 L 153.2850522579372 -0.5 L 108.0683073789686 -0.5 Z"/><text text-anchor="middle" pointer-events="none" font-size="8px" fill="#000000" x="89.1425261289686" y="3" transform="rotate(180 89.1425261289686 0)" font-family="sans-serif">TARGET</text></g></g><g class="layer nodes"><g class="node" aria-label="graph-node0" transform="translate(183.3993142466839,-11.261948418999562)"><circle class="outline" cx="0" cy="0" r="25" fill="#C990C0" stroke="#b261a5" stroke-width="2px"/><text class="caption" text-anchor="middle" pointer-events="none" x="0" y="5" font-size="10px" fill="#FFFFFF" font-family="sans-serif"> Server</text></g><g class="node" aria-label="graph-node1" transform="translate(39.5462021607933,-11.608470397640588)"><circle class="outline" cx="0" cy="0" r="25" fill="#F79767" stroke="#f36924" stroke-width="2px"/><text class="caption" text-anchor="middle" pointer-events="none" x="0" y="5" font-size="10px" fill="#FFFFFF" font-family="sans-serif"> callEmpl…</text></g><g class="node" aria-label="graph-node2" transform="translate(-110.42927117978489,-14.333855805892473)"><circle class="outline" cx="0" cy="0" r="25" fill="#57C7E3" stroke="#23b3d7" stroke-width="2px"/><text class="caption" text-anchor="middle" pointer-events="none" x="0" y="5" font-size="10px" fill="#2A2C34" font-family="sans-serif"> callEmpl…</text></g><g class="node" aria-label="graph-node3" transform="translate(-262.34575058740927,-80.53984704208845)"><circle class="outline" cx="0" cy="0" r="25" fill="#F16667" stroke="#eb2728" stroke-width="2px"/><text class="caption" text-anchor="middle" pointer-events="none" x="0" y="5" font-size="10px" fill="#FFFFFF" font-family="sans-serif"> </text></g><g class="node" aria-label="graph-node4" transform="translate(-446.5762542329305,-82.00261224010927)"><circle class="outline" cx="0" cy="0" r="25" fill="#569480" stroke="#447666" stroke-width="2px"/><text class="caption" text-anchor="middle" pointer-events="none" x="0" y="5" font-size="10px" fill="#FFFFFF" font-family="sans-serif"> rest:req:/…</text></g><g class="node" aria-label="graph-node5" transform="translate(-259.80384965596585,65.53893045323909)"><circle class="outline" cx="0" cy="0" r="25" fill="#F16667" stroke="#eb2728" stroke-width="2px"/><text class="caption" text-anchor="middle" pointer-events="none" x="0" y="5" font-size="10px" fill="#FFFFFF" font-family="sans-serif"> {"type":"…</text></g><g class="node" aria-label="graph-node6" transform="translate(-445.0886350788735,65.22447693744914)"><circle class="outline" cx="0" cy="0" r="25" fill="#ECB5C9" stroke="#da7298" stroke-width="2px"/><text class="caption" text-anchor="middle" pointer-events="none" x="0" y="5" font-size="10px" fill="#2A2C34" font-family="sans-serif"> rest:resp…</text></g></g></svg>