<svg xmlns="http://www.w3.org/2000/svg" width="1360.130859375" height="215.3636016845703" viewBox="-897.7109985351562 -111.76351928710938 1360.130859375 215.3636016845703"><title>Neo4j Graph Visualization</title><desc>Created using Neo4j (http://www.neo4j.com/)</desc><g class="layer relationships"><g class="relationship" transform="translate(433.41975460702275 -12.123813801008339) rotate(538.3086117556261)"><path class="outline" fill="#A5ABB6" stroke="none" d="M 25 0.5 L 37.476518140126856 0.5 L 37.476518140126856 -0.5 L 25 -0.5 Z M 90.15620564012686 0.5 L 102.63272378025371 0.5 L 102.63272378025371 3.5 L 109.63272378025371 0 L 102.63272378025371 -3.5 L 102.63272378025371 -0.5 L 90.15620564012686 -0.5 Z"/><text text-anchor="middle" pointer-events="none" font-size="8px" fill="#000000" x="63.816361890126856" y="3" transform="rotate(180 63.816361890126856 0)" font-family="sans-serif">TESTED_BY</text></g><g class="relationship" transform="translate(167.0928418144606 -4.650062114495828) rotate(358.4783315935356)"><path class="outline" fill="#A5ABB6" stroke="none" d="M 25 0.5 L 37.614506740553196 0.5 L 37.614506740553196 -0.5 L 25 -0.5 Z M 87.1848192405532 0.5 L 99.79932598110639 0.5 L 99.79932598110639 3.5 L 106.79932598110639 0 L 99.79932598110639 -3.5 L 99.79932598110639 -0.5 L 87.1848192405532 -0.5 Z"/><text text-anchor="middle" pointer-events="none" font-size="8px" fill="#000000" x="62.399662990553196" y="3" font-family="sans-serif">BASED_ON</text></g><g class="relationship" transform="translate(36.451599822649754 -82.63833863632775) rotate(449.19124586319293)"><path class="outline" fill="#A5ABB6" stroke="none" d="M 25 0.5 L 58.648381700822284 0.5 L 58.648381700822284 -0.5 L 25 -0.5 Z M 85.98431920082228 0.5 L 119.63270090164457 0.5 L 119.63270090164457 3.5 L 126.63270090164457 0 L 119.63270090164457 -3.5 L 119.63270090164457 -0.5 L 85.98431920082228 -0.5 Z"/><text text-anchor="middle" pointer-events="none" font-size="8px" fill="#000000" x="72.31635045082228" y="3" font-family="sans-serif">NEXT</text></g><g class="relationship" transform="translate(36.451599822649754 -82.63833863632775) rotate(180.05351753940005)"><path class="outline" fill="#A5ABB6" stroke="none" d="M 25 0.5 L 44.5839693219079 0.5 L 44.5839693219079 -0.5 L 25 -0.5 Z M 82.4355318219079 0.5 L 102.0195011438158 0.5 L 102.0195011438158 3.5 L 109.0195011438158 0 L 102.0195011438158 -3.5 L 102.0195011438158 -0.5 L 82.4355318219079 -0.5 Z"/><text text-anchor="middle" pointer-events="none" font-size="8px" fill="#000000" x="63.5097505719079" y="3" transform="rotate(180 63.5097505719079 0)" font-family="sans-serif">TARGET</text></g><g class="relationship" transform="translate(36.451599822649754 -82.63833863632775) rotate(390.8357319298865)"><path class="outline" fill="#A5ABB6" stroke="none" d="M 25 0.5 L 53.5686195650634 0.5 L 53.5686195650634 -0.5 L 25 -0.5 Z M 91.5803383150634 0.5 L 120.1489578801268 0.5 L 120.1489578801268 3.5 L 127.1489578801268 0 L 120.1489578801268 -3.5 L 120.1489578801268 -0.5 L 91.5803383150634 -0.5 Z"/><text text-anchor="middle" pointer-events="none" font-size="8px" fill="#000000" x="72.5744789400634" y="3" font-family="sans-serif">REC_BY</text></g><g class="relationship" transform="translate(-97.56784285764336 -82.7635205075031) rotate(537.0698407229573)"><path class="outline" fill="#A5ABB6" stroke="none" d="M 25 0.5 L 54.44659568865937 0.5 L 54.44659568865937 -0.5 L 25 -0.5 Z M 104.75128318865937 0.5 L 134.19787887731874 0.5 L 134.19787887731874 3.5 L 141.19787887731874 0 L 134.19787887731874 -3.5 L 134.19787887731874 -0.5 L 104.75128318865937 -0.5 Z"/><text text-anchor="middle" pointer-events="none" font-size="8px" fill="#000000" x="79.59893943865937" y="3" transform="rotate(180 79.59893943865937 0)" font-family="sans-serif">BOUND_TO</text></g><g class="relationship" transform="translate(38.59188838935751 68.9792564757793) rotate(330.1878711322636)"><path class="outline" fill="#A5ABB6" stroke="none" d="M 25 0.5 L 51.54441339159544 0.5 L 51.54441339159544 -0.5 L 25 -0.5 Z M 89.55613214159544 0.5 L 116.10054553319088 0.5 L 116.10054553319088 3.5 L 123.10054553319088 0 L 116.10054553319088 -3.5 L 116.10054553319088 -0.5 L 89.55613214159544 -0.5 Z"/><text text-anchor="middle" pointer-events="none" font-size="8px" fill="#000000" x="70.55027276659544" y="3" font-family="sans-serif">REC_BY</text></g><g class="relationship" transform="translate(38.59188838935751 68.9792564757793) rotate(180.96248558002407)"><path class="outline" fill="#A5ABB6" stroke="none" d="M 25 0.5 L 42.718893059453634 0.5 L 42.718893059453634 -0.5 L 25 -0.5 Z M 80.57045555945363 0.5 L 98.28934861890727 0.5 L 98.28934861890727 3.5 L 105.28934861890727 0 L 98.28934861890727 -3.5 L 98.28934861890727 -0.5 L 80.57045555945363 -0.5 Z"/><text text-anchor="middle" pointer-events="none" font-size="8px" fill="#000000" x="61.644674309453634" y="3" transform="rotate(180 61.644674309453634 0)" font-family="sans-serif">TARGET</text></g><g class="relationship" transform="translate(-91.67907741936895 66.79068826784682) rotate(539.2422279033719)"><path class="outline" fill="#A5ABB6" stroke="none" d="M 25 0.5 L 56.331939910122 0.5 L 56.331939910122 -0.5 L 25 -0.5 Z M 106.636627410122 0.5 L 137.968567320244 0.5 L 137.968567320244 3.5 L 144.968567320244 0 L 137.968567320244 -3.5 L 137.968567320244 -0.5 L 106.636627410122 -0.5 Z"/><text text-anchor="middle" pointer-events="none" font-size="8px" fill="#000000" x="81.484283660122" y="3" transform="rotate(180 81.484283660122 0)" font-family="sans-serif">BOUND_TO</text></g><g class="relationship" transform="translate(-868.7110176926096 7.247206828878205) rotate(359.76496074584884)"><path class="outline" fill="#A5ABB6" stroke="none" d="M 25 0.5 L 48.620610231450314 0.5 L 48.620610231450314 -0.5 L 25 -0.5 Z M 101.30029773145031 0.5 L 124.92090796290063 0.5 L 124.92090796290063 3.5 L 131.92090796290063 0 L 124.92090796290063 -3.5 L 124.92090796290063 -0.5 L 101.30029773145031 -0.5 Z"/><text text-anchor="middle" pointer-events="none" font-size="8px" fill="#000000" x="74.96045398145031" y="3" font-family="sans-serif">TESTED_BY</text></g><g class="relationship" transform="translate(-559.24324964437 5.500928391917853) rotate(539.5858959809979)"><path class="outline" fill="#A5ABB6" stroke="none" d="M 25 0.5 L 47.990926149693024 0.5 L 47.990926149693024 -0.5 L 25 -0.5 Z M 97.56123864969302 0.5 L 120.55216479938605 0.5 L 120.55216479938605 3.5 L 127.55216479938605 0 L 120.55216479938605 -3.5 L 120.55216479938605 -0.5 L 97.56123864969302 -0.5 Z"/><text text-anchor="middle" pointer-events="none" font-size="8px" fill="#000000" x="72.77608239969302" y="3" transform="rotate(180 72.77608239969302 0)" font-family="sans-serif">BASED_ON</text></g><g class="relationship" transform="translate(-424.70544897127894 74.60008000250191) rotate(358.04671102426664)"><path class="outline" fill="#A5ABB6" stroke="none" d="M 25 0.5 L 59.15795782270892 0.5 L 59.15795782270892 -0.5 L 25 -0.5 Z M 97.00952032270892 0.5 L 131.16747814541785 0.5 L 131.16747814541785 3.5 L 138.16747814541785 0 L 131.16747814541785 -3.5 L 131.16747814541785 -0.5 L 97.00952032270892 -0.5 Z"/><text text-anchor="middle" pointer-events="none" font-size="8px" fill="#000000" x="78.08373907270892" y="3" font-family="sans-serif">TARGET</text></g><g class="relationship" transform="translate(-424.70544897127894 74.60008000250191) rotate(207.18521325175692)"><path class="outline" fill="#A5ABB6" stroke="none" d="M 25 0.5 L 53.116743997362946 0.5 L 53.116743997362946 -0.5 L 25 -0.5 Z M 91.12846274736295 0.5 L 119.24520674472589 0.5 L 119.24520674472589 3.5 L 126.24520674472589 0 L 119.24520674472589 -3.5 L 119.24520674472589 -0.5 L 91.12846274736295 -0.5 Z"/><text text-anchor="middle" pointer-events="none" font-size="8px" fill="#000000" x="72.12260337236295" y="3" transform="rotate(180 72.12260337236295 0)" font-family="sans-serif">REC_BY</text></g><g class="relationship" transform="translate(-422.6251469022026 -73.16988844186926) rotate(450.80655532804866)"><path class="outline" fill="#A5ABB6" stroke="none" d="M 25 0.5 L 56.72433672010469 0.5 L 56.72433672010469 -0.5 L 25 -0.5 Z M 84.06027422010469 0.5 L 115.78461094020938 0.5 L 115.78461094020938 3.5 L 122.78461094020938 0 L 115.78461094020938 -3.5 L 115.78461094020938 -0.5 L 84.06027422010469 -0.5 Z"/><text text-anchor="middle" pointer-events="none" font-size="8px" fill="#000000" x="70.39230547010469" y="3" transform="rotate(180 70.39230547010469 0)" font-family="sans-serif">NEXT</text></g><g class="relationship" transform="translate(-422.6251469022026 -73.16988844186926) rotate(359.60459567095313)"><path class="outline" fill="#A5ABB6" stroke="none" d="M 25 0.5 L 57.114469958476974 0.5 L 57.114469958476974 -0.5 L 25 -0.5 Z M 94.96603245847697 0.5 L 127.08050241695395 0.5 L 127.08050241695395 3.5 L 134.08050241695395 0 L 127.08050241695395 -3.5 L 127.08050241695395 -0.5 L 94.96603245847697 -0.5 Z"/><text text-anchor="middle" pointer-events="none" font-size="8px" fill="#000000" x="76.04025120847697" y="3" font-family="sans-serif">TARGET</text></g><g class="relationship" transform="translate(-422.6251469022026 -73.16988844186926) rotate(510.0647372181522)"><path class="outline" fill="#A5ABB6" stroke="none" d="M 25 0.5 L 56.31926894421797 0.5 L 56.31926894421797 -0.5 L 25 -0.5 Z M 94.33098769421797 0.5 L 125.65025663843593 0.5 L 125.65025663843593 3.5 L 132.65025663843593 0 L 125.65025663843593 -3.5 L 125.65025663843593 -0.5 L 94.33098769421797 -0.5 Z"/><text text-anchor="middle" pointer-events="none" font-size="8px" fill="#000000" x="75.32512831921797" y="3" transform="rotate(180 75.32512831921797 0)" font-family="sans-serif">REC_BY</text></g></g><g class="layer nodes"><g class="node" aria-label="graph-node0" transform="translate(433.41975460702275,-12.123813801008339)"><circle class="outline" cx="0" cy="0" r="25" fill="#C990C0" stroke="#b261a5" stroke-width="2px"/><text class="caption" text-anchor="middle" pointer-events="none" x="0" y="5" font-size="10px" fill="#FFFFFF" font-family="sans-serif"> Server</text></g><g class="node" aria-label="graph-node1" transform="translate(298.84568925858645,-8.149993462229844)"><circle class="outline" cx="0" cy="0" r="25" fill="#F79767" stroke="#f36924" stroke-width="2px"/><text class="caption" text-anchor="middle" pointer-events="none" x="0" y="5" font-size="10px" fill="#FFFFFF" font-family="sans-serif"> callEmpl…</text></g><g class="node" aria-label="graph-node2" transform="translate(167.0928418144606,-4.650062114495828)"><circle class="outline" cx="0" cy="0" r="25" fill="#57C7E3" stroke="#23b3d7" stroke-width="2px"/><text class="caption" text-anchor="middle" pointer-events="none" x="0" y="5" font-size="10px" fill="#2A2C34" font-family="sans-serif"> callEmpl…</text></g><g class="node" aria-label="graph-node3" transform="translate(36.451599822649754,-82.63833863632775)"><circle class="outline" cx="0" cy="0" r="25" fill="#F16667" stroke="#eb2728" stroke-width="2px"/><text class="caption" text-anchor="middle" pointer-events="none" x="0" y="5" font-size="10px" fill="#FFFFFF" font-family="sans-serif"> </text></g><g class="node" aria-label="graph-node4" transform="translate(-97.56784285764336,-82.7635205075031)"><circle class="outline" cx="0" cy="0" r="25" fill="#569480" stroke="#447666" stroke-width="2px"/><text class="caption" text-anchor="middle" pointer-events="none" x="0" y="5" font-size="10px" fill="#FFFFFF" font-family="sans-serif"> rest:req:/…</text></g><g class="node" aria-label="graph-node5" transform="translate(38.59188838935751,68.9792564757793)"><circle class="outline" cx="0" cy="0" r="25" fill="#F16667" stroke="#eb2728" stroke-width="2px"/><text class="caption" text-anchor="middle" pointer-events="none" x="0" y="5" font-size="10px" fill="#FFFFFF" font-family="sans-serif"> {"type":"…</text></g><g class="node" aria-label="graph-node6" transform="translate(-91.67907741936895,66.79068826784682)"><circle class="outline" cx="0" cy="0" r="25" fill="#ECB5C9" stroke="#da7298" stroke-width="2px"/><text class="caption" text-anchor="middle" pointer-events="none" x="0" y="5" font-size="10px" fill="#2A2C34" font-family="sans-serif"> rest:resp…</text></g><g class="node" aria-label="graph-node7" transform="translate(-868.7110176926096,7.247206828878205)"><circle class="outline" cx="0" cy="0" r="25" fill="#C990C0" stroke="#b261a5" stroke-width="2px"/><text class="caption" text-anchor="middle" pointer-events="none" x="0" y="5" font-size="10px" fill="#FFFFFF" font-family="sans-serif"> Client</text></g><g class="node" aria-label="graph-node8" transform="translate(-711.7914300695962,6.603486295920838)"><circle class="outline" cx="0" cy="0" r="25" fill="#F79767" stroke="#f36924" stroke-width="2px"/><text class="caption" text-anchor="middle" pointer-events="none" x="0" y="5" font-size="10px" fill="#FFFFFF" font-family="sans-serif"> contextL…</text></g><g class="node" aria-label="graph-node9" transform="translate(-559.24324964437,5.500928391917853)"><circle class="outline" cx="0" cy="0" r="25" fill="#57C7E3" stroke="#23b3d7" stroke-width="2px"/><text class="caption" text-anchor="middle" pointer-events="none" x="0" y="5" font-size="10px" fill="#2A2C34" font-family="sans-serif"> contextL…</text></g><g class="node" aria-label="graph-node10" transform="translate(-424.70544897127894,74.60008000250191)"><circle class="outline" cx="0" cy="0" r="25" fill="#F16667" stroke="#eb2728" stroke-width="2px"/><text class="caption" text-anchor="middle" pointer-events="none" x="0" y="5" font-size="10px" fill="#FFFFFF" font-family="sans-serif"> {"type":"…</text></g><g class="node" aria-label="graph-node11" transform="translate(-261.6327797626234,69.0385620892143)"><circle class="outline" cx="0" cy="0" r="25" fill="#569480" stroke="#447666" stroke-width="2px"/><text class="caption" text-anchor="middle" pointer-events="none" x="0" y="5" font-size="10px" fill="#FFFFFF" font-family="sans-serif"> rest:resp…</text></g><g class="node" aria-label="graph-node12" transform="translate(-422.6251469022026,-73.16988844186926)"><circle class="outline" cx="0" cy="0" r="25" fill="#F16667" stroke="#eb2728" stroke-width="2px"/><text class="caption" text-anchor="middle" pointer-events="none" x="0" y="5" font-size="10px" fill="#FFFFFF" font-family="sans-serif"> </text></g><g class="node" aria-label="graph-node13" transform="translate(-263.548432597236,-74.26771136316898)"><circle class="outline" cx="0" cy="0" r="25" fill="#ECB5C9" stroke="#da7298" stroke-width="2px"/><text class="caption" text-anchor="middle" pointer-events="none" x="0" y="5" font-size="10px" fill="#2A2C34" font-family="sans-serif"> rest:req:…</text></g></g></svg>